# xmcd CD database file
#
# Track frame offsets:
#	183
#	14425
#	28513
#	41855
#	54740
#	67698
#	79683
#	93195
#	107233
#	119575
#	130268
#	141083
#	153778
#	166683
#	179088
#	189560
#	204230
#	216165
#	228990
#	241870
#
# Disc length: 3405 seconds
#
# Revision: 3
# Processed by: cddbd v1.5.2PL0 Copyright (c) Steve Scherf et al.
# Submitted via: CDex 1.51
#
DISCID=0c0d4b14
DTITLE=Andrews Sisters - Rum and Coca Cola
DYEAR=1951
DGENRE=Oldies
TTITLE0=Rum and Coca Cola
TTITLE1=Bei Mir Bist Du Schön
TTITLE2=Don't Sit Under the Appletree
TTITLE3=Beat Me Daddy, Eight to the Bar
TTITLE4=Beer Barrel Polka
TTITLE5=I Can Dream, Can't I
TTITLE6=Alexander's Ragtime Band
TTITLE7=Tuxedo Junction
TTITLE8=Boogie Woogie Bugle Boy
TTITLE9=Way Down Yonder in New Orleans
TTITLE10=Pagan Love Song
TTITLE11=Corns for My Country
TTITLE12=Gimme Some Skin My Friend
TTITLE13=When the Midnight Choo Choo Leaves for Alabama
TTITLE14=Bounce Me Brother With a Solid Four
TTITLE15=Hold Tight
TTITLE16=Rhumboogie
TTITLE17=Sonny Boy
TTITLE18=Shoo Shoo Baby
TTITLE19=Civilization (Bongo, Bongo, Bongo)
EXTD=YEAR: 1951
EXTT0=
EXTT1=
EXTT2=
EXTT3=
EXTT4=
EXTT5=
EXTT6=
EXTT7=
EXTT8=
EXTT9=
EXTT10=
EXTT11=
EXTT12=
EXTT13=
EXTT14=
EXTT15=
EXTT16=
EXTT17=
EXTT18=
EXTT19=
PLAYORDER=
